<svg width="900" height="600" viewBox="0 0 900 600" fill="none" xmlns="http://www.w3.org/2000/svg">
<g clip-path="url(#clip0_1_20)">
<path d="M900 0H0V600H900V0Z" fill="#001220"/>
<path d="M0 377L21.5 372.5C43 368 86 359 128.8 362.3C171.7 365.7 214.3 381.3 257.2 388.5C300 395.7 343 394.3 385.8 396.5C428.7 398.7 471.3 404.3 514.2 406.5C557 408.7 600 407.3 642.8 413.7C685.7 420 728.3 434 771.2 426.3C814 418.7 857 389.3 878.5 374.7L900 360V601H878.5C857 601 814 601 771.2 601C728.3 601 685.7 601 642.8 601C600 601 557 601 514.2 601C471.3 601 428.7 601 385.8 601C343 601 300 601 257.2 601C214.3 601 171.7 601 128.8 601C86 601 43 601 21.5 601H0V377Z" fill="#1498D5"/>
<path d="M0 424L21.5 430.2C43 436.3 86 448.7 128.8 445.5C171.7 442.3 214.3 423.7 257.2 420.5C300 417.3 343 429.7 385.8 428.2C428.7 426.7 471.3 411.3 514.2 414.7C557 418 600 440 642.8 446.3C685.7 452.7 728.3 443.3 771.2 433.8C814 424.3 857 414.7 878.5 409.8L900 405V601H878.5C857 601 814 601 771.2 601C728.3 601 685.7 601 642.8 601C600 601 557 601 514.2 601C471.3 601 428.7 601 385.8 601C343 601 300 601 257.2 601C214.3 601 171.7 601 128.8 601C86 601 43 601 21.5 601H0V424Z" fill="#0288CA"/>
<path d="M0 440L21.5 446C43 452 86 464 128.8 465.5C171.7 467 214.3 458 257.2 456C300 454 343 459 385.8 468.8C428.7 478.7 471.3 493.3 514.2 495.5C557 497.7 600 487.3 642.8 475.7C685.7 464 728.3 451 771.2 445.7C814 440.3 857 442.7 878.5 443.8L900 445V601H878.5C857 601 814 601 771.2 601C728.3 601 685.7 601 642.8 601C600 601 557 601 514.2 601C471.3 601 428.7 601 385.8 601C343 601 300 601 257.2 601C214.3 601 171.7 601 128.8 601C86 601 43 601 21.5 601H0V440Z" fill="#0078BF"/>
<path d="M0 515L21.5 514C43 513 86 511 128.8 508.5C171.7 506 214.3 503 257.2 508.5C300 514 343 528 385.8 528.3C428.7 528.7 471.3 515.3 514.2 505.5C557 495.7 600 489.3 642.8 487.2C685.7 485 728.3 487 771.2 496.3C814 505.7 857 522.3 878.5 530.7L900 539V601H878.5C857 601 814 601 771.2 601C728.3 601 685.7 601 642.8 601C600 601 557 601 514.2 601C471.3 601 428.7 601 385.8 601C343 601 300 601 257.2 601C214.3 601 171.7 601 128.8 601C86 601 43 601 21.5 601H0V515Z" fill="#0068B2"/>
<path d="M0 567L21.5 562C43 557 86 547 128.8 547C171.7 547 214.3 557 257.2 562C300 567 343 567 385.8 561.3C428.7 555.7 471.3 544.3 514.2 541.8C557 539.3 600 545.7 642.8 545.5C685.7 545.3 728.3 538.7 771.2 539.5C814 540.3 857 548.7 878.5 552.8L900 557V601H878.5C857 601 814 601 771.2 601C728.3 601 685.7 601 642.8 601C600 601 557 601 514.2 601C471.3 601 428.7 601 385.8 601C343 601 300 601 257.2 601C214.3 601 171.7 601 128.8 601C86 601 43 601 21.5 601H0V567Z" fill="#0056A9"/>
</g>
<defs>
<clipPath id="clip0_1_20">
<rect width="900" height="600" fill="white"/>
</clipPath>
</defs>
</svg>
