<svg viewBox="0 0 600 258" fill="black" xmlns="http://www.w3.org/2000/svg" height="44"><g clip-path="url(#clip0_871_352)"><path d="M366.857 32.7972C360.288 26.9159 353.11 21.7033 345.429 17.2595V71.8757C329.722 54.0818 306.744 42.8567 281.143 42.8567C257.165 42.8567 235.484 52.7036 219.927 68.5757C224.187 74.8632 227.793 81.6289 230.652 88.7759C242.424 73.8601 260.665 64.285 281.143 64.285C316.647 64.285 345.429 93.0666 345.429 128.57C345.429 153.998 330.666 175.977 309.244 186.405C302.625 189.627 295.369 191.746 287.715 192.524C285.556 192.743 283.362 192.855 281.143 192.855C273.465 192.855 266.1 191.508 259.275 189.039C234.537 180.089 216.858 156.395 216.858 128.57C216.858 81.2321 178.483 42.8567 131.145 42.8567C83.807 42.8567 45.4316 81.2321 45.4316 128.57C45.4316 175.908 83.807 214.283 131.145 214.283C155.123 214.283 176.805 204.436 192.361 188.564C188.102 182.277 184.496 175.511 181.636 168.364C169.864 183.28 151.623 192.855 131.145 192.855C95.6415 192.855 66.86 164.074 66.86 128.57C66.86 93.0666 95.6415 64.285 131.145 64.285C166.649 64.285 195.43 93.0666 195.43 128.57C195.43 137.517 196.802 146.142 199.343 154.248C203.44 167.311 210.577 179.027 219.927 188.564C226.805 195.583 234.884 201.424 243.827 205.755C255.109 211.221 267.768 214.283 281.143 214.283C294.519 214.283 306.362 211.415 317.366 206.277C317.678 206.13 317.994 205.98 318.306 205.83C318.931 205.53 319.55 205.221 320.169 204.905C347.888 190.708 366.86 161.855 366.86 128.57V32.7972H366.857Z" fill="#0056A9"></path><path d="M569.568 42.8567H404.254C408.967 49.613 413.139 56.7787 416.704 64.285H452.567V212.005C460.17 210.049 467.364 207.074 473.996 203.24V64.285H596.997C588.687 56.1568 579.584 48.8911 569.568 42.8567Z" fill="#0056A9"></path><path d="M131.145 257.143C167.117 257.143 199.636 242.371 222.971 218.562C216.912 214.637 211.277 210.118 206.143 205.087C186.817 224.034 160.345 235.715 131.142 235.715C71.9694 235.715 24.0001 187.746 24.0001 128.573C24.0001 69.4007 71.9694 21.4284 131.145 21.4284C144.633 21.4284 157.539 23.9221 169.43 28.4722C174.617 22.6877 180.249 17.3064 186.267 12.3845C169.561 4.4438 150.87 0 131.145 0C60.1349 0 2.57178 57.5631 2.57178 128.57C2.57178 199.577 60.1349 257.14 131.142 257.14L131.145 257.143Z" fill="#343435"></path><path d="M388.285 128.57C388.285 187.743 340.316 235.712 281.143 235.712C267.656 235.712 254.749 233.218 242.859 228.671C237.671 234.456 232.04 239.837 226.021 244.759C242.727 252.7 261.418 257.14 281.143 257.14C352.15 257.14 409.714 199.577 409.714 128.57C409.714 102.282 401.826 77.8383 388.285 57.4756V128.57Z" fill="#343435"></path><path d="M281.144 0C296.172 0 310.597 2.57815 324 7.3157V30.3441C310.875 24.6096 296.381 21.4284 281.144 21.4284C251.94 21.4284 225.471 33.1097 206.143 52.0568C201.008 47.0255 195.374 42.5067 189.314 38.5817C212.649 14.772 245.171 0 281.144 0Z" fill="#343435"></path><path d="M358.448 0C368.501 6.05631 377.785 13.2595 386.12 21.4283H559.712C551.378 13.2595 542.093 6.05631 532.04 0H358.448Z" fill="#343435"></path><path d="M529.368 85.7134H552.396C557.137 99.1198 559.712 113.542 559.712 128.57C559.712 199.577 502.152 257.14 431.142 257.14C411.417 257.14 392.726 252.696 376.02 244.759C382.041 239.837 387.67 234.456 392.857 228.671C404.745 233.221 417.654 235.712 431.142 235.712C490.314 235.712 538.284 187.743 538.284 128.57C538.284 113.332 535.102 98.8385 529.368 85.7134Z" fill="#343435"></path></g><defs><clipPath id="clip0_871_352"><rect width="600" height="257.143" fill="white"></rect></clipPath></defs></svg>